<svg width="286" height="79" viewBox="0 0 286 79" fill="none" xmlns="http://www.w3.org/2000/svg">
<path d="M64.0312 48.875V17.5H74.1562V48.875C74.1562 51.9167 73.4688 54.5417 72.0938 56.75C70.7396 58.9375 68.8958 60.6354 66.5625 61.8438C64.25 63.0312 61.6354 63.625 58.7188 63.625C55.7188 63.625 53.0521 63.125 50.7188 62.125C48.3854 61.1042 46.5521 59.5521 45.2188 57.4688C43.9062 55.3646 43.25 52.6875 43.25 49.4375H53.4375C53.4375 51.0417 53.6354 52.3125 54.0312 53.25C54.4479 54.1667 55.0521 54.8125 55.8438 55.1875C56.6354 55.5625 57.5938 55.75 58.7188 55.75C59.8021 55.75 60.7396 55.4896 61.5312 54.9688C62.3229 54.4271 62.9375 53.6458 63.375 52.625C63.8125 51.5833 64.0312 50.3333 64.0312 48.875ZM86.5 17.5H94.9375L105.875 50.0312L116.781 17.5H125.219L109.281 63H102.438L86.5 17.5ZM81.625 17.5H90.2188L91.8125 51.2188V63H81.625V17.5ZM121.5 17.5H130.125V63H119.906V51.2188L121.5 17.5Z" fill="#F2F2F2"/>
<path d="M152.156 63H142.156L142.219 55.125H152.156C154.427 55.125 156.344 54.6042 157.906 53.5625C159.469 52.5 160.656 50.9375 161.469 48.875C162.281 46.7917 162.688 44.2604 162.688 41.2812V39.1875C162.688 36.9375 162.458 34.9583 162 33.25C161.542 31.5208 160.865 30.0729 159.969 28.9062C159.073 27.7396 157.958 26.8646 156.625 26.2812C155.312 25.6979 153.802 25.4062 152.094 25.4062H141.969V17.5H152.094C155.177 17.5 157.99 18.0208 160.531 19.0625C163.094 20.1042 165.302 21.5938 167.156 23.5312C169.031 25.4688 170.479 27.7604 171.5 30.4062C172.521 33.0521 173.031 36 173.031 39.25V41.2812C173.031 44.5104 172.521 47.4583 171.5 50.125C170.479 52.7708 169.031 55.0625 167.156 57C165.302 58.9167 163.104 60.3958 160.562 61.4375C158.021 62.4792 155.219 63 152.156 63ZM147.938 17.5V63H137.75V17.5H147.938ZM194.688 63.625C192 63.625 189.594 63.1979 187.469 62.3438C185.344 61.4896 183.542 60.3125 182.062 58.8125C180.604 57.2917 179.49 55.5417 178.719 53.5625C177.948 51.5833 177.562 49.4688 177.562 47.2188V46.0312C177.562 43.5104 177.917 41.1875 178.625 39.0625C179.333 36.9375 180.365 35.0938 181.719 33.5312C183.094 31.9479 184.781 30.7292 186.781 29.875C188.781 29 191.062 28.5625 193.625 28.5625C196.021 28.5625 198.156 28.9583 200.031 29.75C201.906 30.5208 203.49 31.6354 204.781 33.0938C206.073 34.5312 207.052 36.2708 207.719 38.3125C208.406 40.3333 208.75 42.6042 208.75 45.125V49.125H181.5V42.8438H199.188V42.0938C199.188 40.9062 198.969 39.8646 198.531 38.9688C198.115 38.0729 197.49 37.3854 196.656 36.9062C195.844 36.4062 194.812 36.1562 193.562 36.1562C192.375 36.1562 191.385 36.4062 190.594 36.9062C189.802 37.4062 189.167 38.1146 188.688 39.0312C188.229 39.9271 187.896 40.9792 187.688 42.1875C187.479 43.375 187.375 44.6562 187.375 46.0312V47.2188C187.375 48.5312 187.552 49.7292 187.906 50.8125C188.26 51.8958 188.781 52.8229 189.469 53.5938C190.156 54.3646 190.99 54.9688 191.969 55.4062C192.948 55.8438 194.062 56.0625 195.312 56.0625C196.854 56.0625 198.323 55.7708 199.719 55.1875C201.115 54.5833 202.323 53.6458 203.344 52.375L207.906 57.5938C207.219 58.5938 206.25 59.5625 205 60.5C203.771 61.4167 202.292 62.1667 200.562 62.75C198.833 63.3333 196.875 63.625 194.688 63.625ZM224.906 56.0938L231.969 29.1875H242.219L231 63H224.844L224.906 56.0938ZM220.344 29.1875L227.375 56.125L227.438 63H221.281L210.062 29.1875H220.344Z" fill="#F21DA8"/>
<path d="M8.8125 38.875L28.6875 46.0625V54.5312L1.6875 43.0938V37.0938L8.8125 38.875ZM28.6875 33L8.78125 40.3125L1.6875 42V36L28.6875 24.5625V33Z" fill="#11BFAE"/>
<path d="M275.75 41.125L255.719 33.9688V25.5625L282.938 37V43.0312L275.75 41.125ZM255.719 47.125L275.781 39.8125L282.938 38.0938V44.0938L255.719 55.5312V47.125Z" fill="#11BFAE"/>
</svg>
